HIERARCHY
ROOT Hips
{
	OFFSET 0.00000 0.00000 0.00000
	CHANNELS 6 Xposition Yposition Zposition Zrotation Yrotation Xrotation 
	JOINT LHipJoint
	{
		OFFSET 0 0 0
		CHANNELS 3 Zrotation Yrotation Xrotation
		JOINT LeftUpLeg
		{
			OFFSET 1.58895 -1.83665 0.71753
			CHANNELS 3 Zrotation Yrotation Xrotation
			JOINT LeftLeg
			{
				OFFSET 2.50528 -6.88321 0.00000
				CHANNELS 3 Zrotation Yrotation Xrotation
				JOINT LeftFoot
				{
					OFFSET 2.63244 -7.23257 0.00000
					CHANNELS 3 Zrotation Yrotation Xrotation
					JOINT LeftToeBase
					{
						OFFSET 0.23691 -0.65090 1.72750
						CHANNELS 3 Zrotation Yrotation Xrotation
						End Site
						{
							OFFSET 0.00000 -0.00000 0.92561
						}
					}
				}
			}
		}
	}
	JOINT RHipJoint
	{
		OFFSET 0 0 0
		CHANNELS 3 Zrotation Yrotation Xrotation
		JOINT RightUpLeg
		{
			OFFSET -1.51435 -1.83665 0.71753
			CHANNELS 3 Zrotation Yrotation Xrotation
			JOINT RightLeg
			{
				OFFSET -2.54551 -6.99375 0.00000
				CHANNELS 3 Zrotation Yrotation Xrotation
				JOINT RightFoot
				{
					OFFSET -2.66027 -7.30903 0.00000
					CHANNELS 3 Zrotation Yrotation Xrotation
					JOINT RightToeBase
					{
						OFFSET -0.22981 -0.63138 2.03959
						CHANNELS 3 Zrotation Yrotation Xrotation
						End Site
						{
							OFFSET -0.00000 -0.00000 1.07060
						}
					}
				}
			}
		}
	}
	JOINT LowerBack
	{
		OFFSET 0 0 0
		CHANNELS 3 Zrotation Yrotation Xrotation
		JOINT Spine
		{
			OFFSET -0.02651 1.86275 -0.11152
			CHANNELS 3 Zrotation Yrotation Xrotation
			JOINT Spine1
			{
				OFFSET 0.01019 1.86224 0.04087
				CHANNELS 3 Zrotation Yrotation Xrotation
				JOINT Neck
				{
					OFFSET 0 0 0
					CHANNELS 3 Zrotation Yrotation Xrotation
					JOINT Neck1
					{
						OFFSET -0.01926 1.80512 0.08867
						CHANNELS 3 Zrotation Yrotation Xrotation
						JOINT Head
						{
							OFFSET 0.05516 1.76451 -0.38475
							CHANNELS 3 Zrotation Yrotation Xrotation
							End Site
							{
								OFFSET 0.01592 1.82587 -0.14001
							}
						}
					}
				}
				JOINT LeftShoulder
				{
					OFFSET 0 0 0
					CHANNELS 3 Zrotation Yrotation Xrotation
					JOINT LeftArm
					{
						OFFSET 3.47116 1.51376 0.14491
						CHANNELS 3 Zrotation Yrotation Xrotation
						JOINT LeftForeArm
						{
							OFFSET 4.78095 -0.00000 0.00000
							CHANNELS 3 Zrotation Yrotation Xrotation
							JOINT LeftHand
							{
								OFFSET 3.58615 -0.00000 -0.00000
								CHANNELS 3 Zrotation Yrotation Xrotation
								JOINT LeftFingerBase
								{
									OFFSET 0 0 0
									CHANNELS 3 Zrotation Yrotation Xrotation
									JOINT LeftHandIndex1
									{
										OFFSET 0.65981 -0.00000 0.00000
										CHANNELS 3 Zrotation Yrotation Xrotation
										End Site
										{
											OFFSET 0.53196 -0.00000 0.00000
										}
									}
								}
								JOINT LThumb
								{
									OFFSET 0 0 0
									CHANNELS 3 Zrotation Yrotation Xrotation
									End Site
									{
										OFFSET 0.54008 -0.00000 0.54008
									}
								}
							}
						}
					}
				}
				JOINT RightShoulder
				{
					OFFSET 0 0 0
					CHANNELS 3 Zrotation Yrotation Xrotation
					JOINT RightArm
					{
						OFFSET -3.31725 1.61216 0.35156
						CHANNELS 3 Zrotation Yrotation Xrotation
						JOINT RightForeArm
						{
							OFFSET -4.48913 -0.00000 0.00000
							CHANNELS 3 Zrotation Yrotation Xrotation
							JOINT RightHand
							{
								OFFSET -3.70510 -0.00000 0.00000
								CHANNELS 3 Zrotation Yrotation Xrotation
								JOINT RightFingerBase
								{
									OFFSET 0 0 0
									CHANNELS 3 Zrotation Yrotation Xrotation
									JOINT RightHandIndex1
									{
										OFFSET -0.44914 -0.00000 0.00000
										CHANNELS 3 Zrotation Yrotation Xrotation
										End Site
										{
											OFFSET -0.36211 -0.00000 0.00000
										}
									}
								}
								JOINT RThumb
								{
									OFFSET 0 0 0
									CHANNELS 3 Zrotation Yrotation Xrotation
									End Site
									{
										OFFSET -0.36763 -0.00000 0.36763
									}
								}
							}
						}
					}
				}
			}
		}
	}
}
MOTION
Frames: 12
Frame Time: .0083333
-0.5436 18.7048 5.6346 0 0 0 0 0 0 -21 0 0 0 0 0 0 0 0 0 0 0 0 0 0 21 0 0 0 0 0 0 0 0 0 0 0 0 0 0 0 0 0 0 0 0 0 0 -16 0 0 21 0 0 11 0 0 0 -8 0 0 0 0 0 0 0 0 0 0 0 0 0 0 0 0 0 0 0 0 8 0 0 0 0 0 0 0 0 0 0 0 0 0 0 0 0 0
-0.5436 18.7048 5.6346 -2.0028 -4.5810 2.8946 0.0000 0.0000 0.0000 -13.1633 -7.2304 -2.6247 1.3142 7.2612 20.4914 1.7038 7.9771 -28.6390 7.9932 -16.1143 -52.5382 0.0000 0.0000 0.0000 0.0000 0.0000 0.0000 0.0000 0.0000 0.0000 -0.0000 -0.0000 0.0000 -0.0000 -0.0000 0.0000 -0.1588 0.7712 -0.3253 0.9168 1.0361 -1.2396 1.0206 0.5247 -1.1062 -2.0011 -1.4944 -11.8676 2.3642 -2.4235 29.9211 0.8987 -1.0321 11.7909 -0.0000 -0.0000 0.0000 -90.1940 10.1935 32.4734 20.1631 -30.8383 -5.6147 -0.0000 -0.0000 4.1841 16.6700 -32.5504 -9.1524 -7.1250 0.0000 -0.0000 -8.5640 -3.3626 9.1521 -0.0000 -0.0000 0.0000 88.3855 -15.0540 26.8772 -23.6747 34.8184 -7.5200 0.0000 0.0000 23.8284 -9.6071 -35.6111 5.6289 7.1250 -0.0000 -0.0000 29.5837 -63.5734 -13.9319
-0.5423 18.7048 5.6332 -1.9883 -4.5559 2.8740 0.0000 0.0000 0.0000 -13.1810 -7.2026 -2.6327 1.3168 7.2680 20.5118 1.6996 7.9637 -28.6020 7.9986 -16.1183 -52.5578 0.0000 0.0000 0.0000 0.0000 0.0000 0.0000 0.0000 0.0000 0.0000 -0.0000 -0.0000 0.0000 -0.0000 -0.0000 0.0000 -0.1475 0.7643 -0.3507 0.9008 1.0266 -1.2229 0.9984 0.5196 -1.0741 -1.9980 -1.4973 -11.8959 2.4116 -2.4425 29.9136 0.9131 -1.0342 11.7950 -0.0000 0.0000 0.0000 -90.1680 10.1578 32.4601 20.1460 -30.8179 -5.6060 -0.0000 -0.0000 4.2127 16.6064 -32.5360 -9.1126 -7.1250 0.0000 -0.0000 -8.5980 -3.3368 9.1855 -0.0000 0.0000 0.0000 88.4224 -15.0140 26.8669 -23.6697 34.8130 -7.5171 0.0000 0.0000 23.8385 -9.5727 -35.7172 5.6229 7.1250 -0.0000 -0.0000 29.7407 -63.6545 -14.0687
-0.5418 18.7053 5.6309 -1.9966 -4.5335 2.8788 0.0000 0.0000 0.0000 -13.1527 -7.1223 -2.6950 1.3184 7.2723 20.5246 1.6892 7.9257 -28.5077 8.0008 -16.1199 -52.5656 0.0000 0.0000 0.0000 0.0000 0.0000 0.0000 0.0000 0.0000 0.0000 -0.0000 -0.0000 0.0000 -0.0000 -0.0000 0.0000 -0.1328 0.7528 -0.3760 0.9077 1.0112 -1.2196 0.9978 0.5117 -1.0561 -1.9889 -1.4975 -11.9023 2.3998 -2.4411 29.9020 0.9072 -1.0340 11.7914 0.0000 -0.0000 0.0000 -90.1800 10.1386 32.4009 20.1244 -30.7919 -5.5949 -0.0000 -0.0000 4.3000 16.5692 -32.5752 -9.1009 -7.1250 0.0000 -0.0000 -8.6234 -3.3693 9.2179 0.0000 -0.0000 0.0000 88.4000 -14.9848 26.9431 -23.6853 34.8297 -7.5260 0.0000 0.0000 23.7495 -9.5211 -35.8678 5.6125 7.1250 -0.0000 -0.0000 29.9680 -63.7683 -14.2654
-0.5426 18.7054 5.6271 -2.0073 -4.5045 2.8874 0.0000 0.0000 0.0000 -13.1141 -7.0625 -2.7592 1.3190 7.2741 20.5299 1.6833 7.8654 -28.4291 8.0097 -16.1264 -52.5978 0.0000 0.0000 0.0000 0.0000 0.0000 0.0000 0.0000 0.0000 0.0000 -0.0000 -0.0000 0.0000 -0.0000 -0.0000 0.0000 -0.0993 0.7488 -0.2384 0.9102 1.0072 -1.3230 0.9788 0.5101 -1.2386 -2.0150 -1.4918 -11.8044 2.4282 -2.4372 29.9223 0.9235 -1.0324 11.7799 0.0000 -0.0000 0.0000 -90.1735 10.2710 32.4119 20.1081 -30.7724 -5.5865 -0.0000 -0.0000 4.3458 16.5778 -32.6280 -9.1188 -7.1250 0.0000 -0.0000 -8.6247 -3.4235 9.2270 0.0000 -0.0000 0.0000 88.3887 -15.1137 26.9754 -23.7004 34.8458 -7.5347 0.0000 0.0000 23.6782 -9.4990 -35.9255 5.6070 7.1250 -0.0000 -0.0000 30.0577 -63.8110 -14.3418
-0.5425 18.7051 5.6238 -1.9866 -4.4812 2.8681 0.0000 0.0000 0.0000 -13.1359 -7.0907 -2.7576 1.3206 7.2782 20.5421 1.6852 7.8360 -28.4233 8.0120 -16.1281 -52.6058 0.0000 0.0000 0.0000 0.0000 0.0000 0.0000 0.0000 0.0000 0.0000 -0.0000 -0.0000 0.0000 -0.0000 -0.0000 0.0000 -0.0109 0.7737 0.0836 0.8492 1.0434 -1.5272 0.8600 0.5279 -1.6266 -2.0546 -1.5146 -11.6409 2.5487 -2.5025 30.0032 0.9680 -1.0524 11.7824 0.0000 0.0000 0.0000 -90.0754 10.5574 32.5360 20.1071 -30.7712 -5.5861 -0.0000 -0.0000 4.3192 16.5994 -32.6209 -9.1294 -7.1250 0.0000 -0.0000 -8.6118 -3.4203 9.2124 0.0000 0.0000 0.0000 88.5132 -15.4056 26.8342 -23.7118 34.8580 -7.5412 0.0000 0.0000 23.7384 -9.5159 -35.8392 5.6055 7.1250 -0.0000 -0.0000 29.9403 -63.7427 -14.2332
-0.5410 18.7048 5.6218 -1.9746 -4.4790 2.8205 0.0000 0.0000 0.0000 -13.1585 -7.0832 -2.7231 1.3224 7.2828 20.5561 1.6905 7.8044 -28.4389 8.0015 -16.1204 -52.5682 0.0000 0.0000 0.0000 0.0000 0.0000 0.0000 0.0000 0.0000 0.0000 -0.0000 -0.0000 0.0000 -0.0000 -0.0000 0.0000 0.0773 0.7986 0.2890 0.8031 1.0789 -1.6258 0.7589 0.5444 -1.8410 -2.0556 -1.5555 -11.5749 2.5725 -2.5709 30.0411 0.9685 -1.0808 11.7862 -0.0000 -0.0000 0.0000 -90.0183 10.7087 32.5980 20.1090 -30.7735 -5.5870 -0.0000 -0.0000 4.3092 16.6030 -32.5999 -9.1263 -7.1250 0.0000 -0.0000 -8.6074 -3.4000 9.2047 -0.0000 -0.0000 0.0000 88.6227 -15.5405 26.6983 -23.7242 34.8713 -7.5483 0.0000 0.0000 23.8146 -9.4819 -35.7827 5.5777 7.1250 -0.0000 -0.0000 29.9110 -63.6858 -14.1784
-0.5397 18.7044 5.6206 -2.0263 -4.4927 2.7743 0.0000 0.0000 0.0000 -13.1067 -7.0264 -2.6918 1.3239 7.2870 20.5686 1.6926 7.7776 -28.4355 8.0027 -16.1212 -52.5723 0.0000 0.0000 0.0000 0.0000 0.0000 0.0000 0.0000 0.0000 0.0000 -0.0000 -0.0000 0.0000 -0.0000 -0.0000 0.0000 0.1724 0.8125 0.3273 0.8082 1.0988 -1.6167 0.7099 0.5530 -1.8517 -2.0070 -1.5794 -11.5838 2.5078 -2.5969 30.0164 0.9322 -1.0950 11.7773 0.0000 -0.0000 0.0000 -90.0077 10.7335 32.6220 20.1218 -30.7888 -5.5935 -0.0000 -0.0000 4.3125 16.5895 -32.6225 -9.1241 -7.1250 0.0000 -0.0000 -8.6175 -3.4201 9.2186 0.0000 -0.0000 0.0000 88.6548 -15.5334 26.6651 -23.7511 34.8999 -7.5637 0.0000 0.0000 23.8047 -9.3946 -35.8912 5.5402 7.1250 -0.0000 -0.0000 30.1274 -63.7543 -14.3384
-0.5387 18.7041 5.6196 -2.0785 -4.4996 2.7514 0.0000 0.0000 0.0000 -13.0594 -7.0389 -2.6626 1.3258 7.2919 20.5830 1.6925 7.8053 -28.4529 8.0069 -16.1244 -52.5877 0.0000 0.0000 0.0000 0.0000 0.0000 0.0000 0.0000 0.0000 0.0000 -0.0000 -0.0000 0.0000 -0.0000 -0.0000 0.0000 0.2532 0.8207 0.3292 0.8145 1.1110 -1.6122 0.6709 0.5579 -1.8469 -1.9537 -1.5849 -11.5944 2.4828 -2.6095 29.9944 0.9117 -1.0978 11.7700 -0.0000 -0.0000 0.0000 -90.0024 10.7540 32.6377 20.1333 -30.8026 -5.5994 -0.0000 -0.0000 4.3197 16.5702 -32.6426 -9.1180 -7.1250 0.0000 -0.0000 -8.6307 -3.4367 9.2354 -0.0000 -0.0000 0.0000 88.6641 -15.5527 26.7022 -23.7897 34.9410 -7.5858 0.0000 0.0000 23.7529 -9.3465 -36.0117 5.5273 7.1250 -0.0000 -0.0000 30.3179 -63.8431 -14.5000
-0.5377 18.7045 5.6177 -2.0498 -4.4812 2.7511 0.0000 0.0000 0.0000 -13.0938 -7.0636 -2.6716 1.3271 7.2953 20.5932 1.6890 7.8373 -28.4499 8.0170 -16.1318 -52.6240 0.0000 0.0000 0.0000 0.0000 0.0000 0.0000 0.0000 0.0000 0.0000 -0.0000 -0.0000 0.0000 -0.0000 -0.0000 0.0000 0.2380 0.8168 0.3251 0.8084 1.1055 -1.6176 0.6733 0.5553 -1.8503 -1.9301 -1.5799 -11.6303 2.4941 -2.6112 29.9978 0.9114 -1.0941 11.7786 0.0000 -0.0000 0.0000 -90.0308 10.7540 32.5952 20.1403 -30.8111 -5.6031 -0.0000 -0.0000 4.3551 16.5449 -32.6175 -9.0974 -7.1250 0.0000 -0.0000 -8.6420 -3.4071 9.2435 0.0000 -0.0000 0.0000 88.6335 -15.5715 26.8040 -23.8269 34.9807 -7.6071 0.0000 0.0000 23.6993 -9.3336 -36.0581 5.5257 7.1250 -0.0000 -0.0000 30.3857 -63.8787 -14.5606
-0.5368 18.7048 5.6154 -2.0089 -4.4662 2.7604 0.0000 0.0000 0.0000 -13.1353 -7.0642 -2.6911 1.3265 7.2937 20.5885 1.6884 7.8310 -28.4415 8.0204 -16.1342 -52.6361 0.0000 0.0000 0.0000 0.0000 0.0000 0.0000 0.0000 0.0000 0.0000 -0.0000 -0.0000 0.0000 -0.0000 -0.0000 0.0000 0.2005 0.8082 0.3126 0.8094 1.0934 -1.6236 0.6957 0.5499 -1.8500 -1.9221 -1.5745 -11.6409 2.5084 -2.6098 29.9993 0.9155 -1.0907 11.7815 -0.0000 -0.0000 0.0000 -90.0634 10.7536 32.5530 20.1557 -30.8295 -5.6109 -0.0000 -0.0000 4.3740 16.5204 -32.5778 -9.0737 -7.1250 0.0000 -0.0000 -8.6510 -3.3631 9.2472 -0.0000 -0.0000 0.0000 88.5985 -15.5680 26.8731 -23.8419 34.9966 -7.6157 0.0000 0.0000 23.6930 -9.3368 -36.0378 5.5250 7.1250 -0.0000 -0.0000 30.3586 -63.8625 -14.5350
-0.5360 18.7045 5.6137 -2.0025 -4.4729 2.7640 0.0000 0.0000 0.0000 -13.1476 -7.0950 -2.6764 1.3246 7.2887 20.5735 1.6943 7.8202 -28.4741 7.9935 -16.1144 -52.5391 0.0000 0.0000 0.0000 0.0000 0.0000 0.0000 0.0000 0.0000 0.0000 -0.0000 -0.0000 0.0000 -0.0000 -0.0000 0.0000 0.2056 0.8102 0.2980 0.8175 1.0963 -1.6256 0.7013 0.5513 -1.8440 -1.9059 -1.5777 -11.6245 2.5087 -2.6181 29.9709 0.9116 -1.0928 11.7669 0.0000 0.0000 0.0000 -90.0879 10.7308 32.5192 20.1421 -30.8132 -5.6040 -0.0000 -0.0000 4.4108 16.5171 -32.5887 -9.0744 -7.1250 0.0000 -0.0000 -8.6542 -3.3735 9.2521 0.0000 0.0000 0.0000 88.5974 -15.5430 26.8668 -23.8237 34.9773 -7.6052 0.0000 0.0000 23.7038 -9.4052 -35.9763 5.5578 7.1250 -0.0000 -0.0000 30.2152 -63.8289 -14.4364
